<?xml version="1.0" standalone="no"?>
<!DOCTYPE svg PUBLIC "-//W3C//DTD SVG 20010904//EN"
 "http://www.w3.org/TR/2001/REC-SVG-20010904/DTD/svg10.dtd">
<svg version="1.0" xmlns="http://www.w3.org/2000/svg"
 width="432.000000pt" height="432.000000pt" viewBox="0 0 432.000000 432.000000"
 preserveAspectRatio="xMidYMid meet">
<metadata>
Created by potrace 1.14, written by Peter Selinger 2001-2017
</metadata>
<g transform="translate(0.000000,432.000000) scale(0.100000,-0.100000)"
fill="#000000" stroke="none">
<path d="M1998 4235 c-3 -3 -79 -11 -169 -16 -90 -6 -168 -15 -174 -20 -5 -5
-20 -9 -34 -9 -27 0 -36 -3 -186 -50 -133 -42 -266 -101 -306 -136 -8 -8 -19
-14 -23 -14 -32 0 -209 -155 -291 -255 -81 -99 -195 -294 -195 -333 0 -7 -4
-12 -8 -12 -4 0 -14 -35 -21 -77 -8 -43 -20 -89 -27 -103 -7 -14 -15 -64 -19
-110 -4 -47 -13 -103 -21 -125 -12 -33 -13 -62 -4 -170 16 -200 27 -287 39
-318 16 -41 15 -45 -27 -66 -38 -19 -122 -116 -122 -140 0 -6 -6 -22 -14 -34
-8 -13 -16 -61 -19 -121 -4 -92 -2 -107 35 -234 42 -146 51 -165 145 -299 41
-58 80 -100 113 -122 27 -18 50 -37 50 -42 0 -12 125 -69 166 -76 33 -5 35 -8
29 -32 -19 -69 5 -131 51 -131 22 0 25 -8 50 -127 2 -12 13 -30 23 -40 10 -10
30 -50 45 -90 15 -39 34 -77 42 -84 9 -7 23 -30 31 -51 8 -21 19 -38 23 -38 5
0 28 -27 52 -60 23 -33 48 -60 54 -60 6 0 16 -11 22 -25 6 -14 18 -25 27 -25
18 0 52 -18 83 -45 20 -17 26 -18 44 -6 19 12 24 11 40 -10 11 -13 31 -37 46
-53 15 -16 31 -38 37 -49 5 -11 24 -25 40 -30 17 -5 44 -15 62 -23 17 -8 35
-14 40 -14 6 0 18 -9 28 -20 10 -11 24 -20 30 -20 7 0 32 -18 56 -40 24 -21
56 -45 71 -51 15 -6 25 -15 22 -20 -3 -5 13 -9 35 -9 22 0 43 4 46 10 4 6 12
6 23 0 21 -12 72 -32 92 -36 8 -2 51 -15 95 -29 92 -30 111 -33 264 -41 122
-7 191 3 257 36 21 11 44 20 50 20 7 0 26 14 44 31 28 28 33 30 48 16 34 -29
46 -24 129 57 68 65 89 80 114 80 25 0 41 10 75 46 24 26 44 51 44 57 0 5 13
22 29 37 16 15 31 41 35 57 5 25 10 29 41 29 25 0 35 4 35 16 0 16 31 65 58
93 7 7 11 20 8 28 -3 7 3 30 14 51 11 20 20 46 20 58 0 19 16 60 41 106 5 10
9 40 9 67 0 28 5 53 10 56 6 3 10 51 10 107 0 85 5 117 31 202 18 56 35 128
40 161 5 33 13 85 19 115 5 30 14 87 19 125 6 39 14 84 20 100 23 72 36 1181
14 1227 -7 13 -14 39 -17 58 -20 148 -89 322 -168 426 -24 31 -57 76 -74 98
-36 48 -262 266 -276 266 -5 0 -35 17 -66 38 -58 39 -136 82 -182 100 -14 5
-47 20 -75 32 -92 41 -148 59 -215 67 -28 3 -53 10 -56 14 -3 5 -25 9 -49 9
-24 0 -47 5 -50 10 -3 6 -32 10 -64 10 -31 0 -61 4 -66 9 -11 10 -338 25 -347
16z m172 -786 c69 -5 195 -14 280 -20 255 -18 521 -12 536 13 3 4 29 8 59 8
30 0 57 5 60 10 3 6 50 10 105 10 55 0 102 -4 105 -10 3 -5 17 -10 31 -10 13
0 24 -4 24 -10 0 -5 6 -10 13 -10 7 0 23 -9 35 -20 12 -11 25 -20 30 -20 10 0
62 -56 62 -67 0 -5 9 -19 20 -33 11 -14 20 -34 20 -46 0 -11 3 -24 8 -28 11
-11 31 -134 44 -271 15 -159 15 -489 0 -595 -7 -47 -17 -208 -22 -359 -5 -164
-13 -278 -20 -285 -5 -5 -10 -32 -10 -58 0 -26 -4 -48 -10 -48 -5 0 -10 -18
-10 -39 0 -22 -4 -43 -10 -46 -5 -3 -10 -16 -10 -27 0 -23 -17 -82 -32 -111
-5 -10 -6 -27 -3 -38 5 -14 0 -22 -19 -30 -14 -7 -28 -21 -31 -33 -11 -39 -48
-116 -57 -116 -4 0 -8 13 -8 29 0 35 -18 51 -26 24 -3 -10 -10 -26 -15 -35 -5
-10 -9 -31 -9 -47 0 -42 -14 -46 -41 -11 -27 33 -49 39 -49 13 0 -14 -4 -12
-18 8 -20 32 -75 79 -91 79 -6 0 -11 4 -11 9 0 19 -97 36 -190 33 -180 -6
-485 -5 -667 3 -159 6 -190 5 -248 -10 -36 -10 -65 -22 -65 -26 0 -5 -5 -9
-11 -9 -19 0 -96 -70 -111 -101 l-15 -30 -40 45 c-22 25 -46 46 -52 46 -6 0
-11 -17 -12 -37 0 -31 -2 -34 -9 -18 -5 11 -22 36 -39 55 -17 19 -31 38 -31
43 0 14 -53 67 -68 67 -10 0 -12 -7 -8 -26 6 -22 4 -24 -11 -15 -41 22 -115
121 -153 206 -54 119 -62 135 -71 129 -5 -3 -9 -17 -9 -32 l0 -27 -14 26 c-7
15 -16 44 -19 65 -3 22 -14 91 -26 154 -36 206 -41 243 -45 393 -2 82 -6 151
-9 153 -9 9 -35 -8 -40 -27 -7 -25 -16 -24 -49 5 -32 27 -35 36 -10 37 9 0 12
3 5 5 -6 3 -31 0 -55 -7 -64 -18 -76 -20 -83 -9 -4 6 -11 8 -16 4 -11 -7 -49
28 -49 45 0 5 -9 13 -20 16 -11 4 -18 11 -15 16 3 5 -1 6 -9 3 -9 -4 -18 0
-22 9 -3 9 -14 14 -25 12 -10 -2 -19 0 -19 6 0 5 -9 9 -20 9 -11 0 -20 5 -20
10 0 6 -10 10 -23 10 -32 0 -47 18 -47 57 0 18 -5 41 -11 51 -8 12 -9 36 -5
64 7 44 15 51 41 37 13 -7 130 -3 143 5 6 3 13 2 16 -3 4 -6 18 -6 36 -1 17 5
30 5 30 1 0 -3 9 -7 20 -7 11 0 20 4 20 9 0 4 6 5 13 0 6 -4 31 -7 55 -5 32 1
41 -1 36 -11 -5 -8 -2 -8 9 2 9 7 24 11 32 7 8 -3 15 0 16 7 0 9 2 8 6 -1 4
-10 8 -10 21 0 12 10 14 10 8 1 -4 -7 -3 -13 1 -13 5 0 15 6 22 13 11 10 12 9
6 -3 -4 -8 6 1 23 20 17 19 31 40 32 46 0 6 18 32 40 57 22 25 40 51 40 59 0
8 6 20 12 26 10 10 10 17 0 32 -19 30 -13 97 10 103 22 6 25 47 3 47 -12 0
-14 4 -5 19 7 13 7 22 0 26 -15 9 -12 44 5 61 9 9 15 34 15 59 0 35 4 45 20
50 11 3 20 10 20 15 0 4 16 24 35 44 35 36 89 65 158 85 20 6 52 16 70 21 18
6 53 10 78 10 24 0 51 5 59 11 15 10 110 7 380 -12z m-1407 -1138 c66 -57 107
-98 107 -107 0 -24 52 -83 76 -86 22 -3 30 -14 55 -78 16 -41 29 -87 29 -102
0 -15 5 -30 10 -33 6 -3 10 -21 10 -38 0 -18 4 -47 9 -65 6 -20 6 -32 0 -32
-5 0 -9 -7 -9 -15 0 -8 -4 -23 -9 -33 -5 -9 -14 -37 -21 -62 -7 -25 -15 -52
-20 -60 -4 -9 -11 -31 -15 -50 -3 -19 -12 -48 -18 -63 -11 -27 -15 -28 -57
-24 -85 9 -140 45 -205 132 -16 22 -38 47 -47 56 -10 9 -18 19 -18 22 0 3 -19
34 -43 69 -69 101 -92 167 -114 322 -6 45 11 135 35 186 20 42 70 90 94 90 9
0 19 4 22 9 10 15 97 -10 129 -38z m1547 -1230 l55 -8 -60 -3 c-141 -6 -205
-3 -205 9 0 22 76 22 210 2z m670 -1 c-30 -26 -69 -29 -170 -12 l-55 10 75 1
c41 2 84 6 95 11 11 5 33 9 49 9 l29 1 -23 -20z m114 -117 c-4 -65 -31 -112
-108 -186 -64 -60 -147 -106 -194 -107 -20 0 -70 59 -74 90 -6 40 1 50 34 50
32 0 97 40 140 86 47 51 108 95 127 92 26 -4 51 20 51 51 l1 26 13 -23 c7 -14
11 -47 10 -79z m-1071 47 c4 -16 14 -20 52 -20 36 0 52 -6 73 -26 15 -14 39
-32 55 -40 15 -8 27 -19 27 -24 0 -5 10 -12 23 -16 12 -4 24 -10 27 -14 14
-21 86 -60 111 -60 15 0 31 -4 34 -10 3 -5 21 -10 40 -10 45 0 49 -10 24 -57
-30 -57 -76 -74 -146 -53 -18 6 -50 15 -70 21 -99 31 -167 72 -245 152 -36 36
-38 41 -38 101 0 34 3 66 7 69 11 12 21 8 26 -13z"/>
<path d="M1775 2651 c-3 -6 -14 -11 -24 -11 -27 0 -144 -112 -168 -161 -45
-91 -36 -117 29 -83 60 31 68 34 87 34 11 0 22 4 25 9 10 16 167 23 251 11 44
-7 97 -14 118 -17 20 -3 40 -9 43 -14 3 -5 23 -9 44 -9 21 0 42 -4 45 -10 9
-14 115 -12 145 3 16 9 24 20 22 33 -15 90 -45 134 -93 134 -16 0 -54 7 -86
16 -32 9 -83 22 -113 28 -30 7 -62 15 -70 18 -56 23 -244 36 -255 19z"/>
<path d="M3235 2650 c-3 -5 -18 -10 -33 -10 -15 0 -65 -11 -112 -26 -131 -40
-145 -44 -171 -44 -40 -1 -71 -33 -86 -89 -10 -41 -10 -56 0 -72 11 -18 19
-20 77 -15 93 7 149 17 156 27 3 5 20 9 39 9 19 0 37 5 40 11 4 6 21 9 39 8
17 -1 39 2 49 6 16 7 84 2 147 -10 14 -2 42 -7 63 -11 20 -3 37 -10 37 -15 0
-5 6 -9 13 -9 7 0 23 -9 35 -20 11 -11 28 -17 36 -14 58 22 -56 205 -163 262
-45 23 -154 32 -166 12z"/>
<path d="M796 2455 c-3 -9 0 -15 9 -15 9 0 12 6 9 15 -4 8 -7 15 -9 15 -2 0
-5 -7 -9 -15z"/>
<path d="M2793 2338 c-21 -28 -36 -157 -29 -260 14 -228 19 -273 27 -282 5 -6
9 -27 9 -47 0 -21 5 -41 10 -44 6 -3 10 -19 10 -36 0 -16 5 -29 10 -29 6 0 10
-8 10 -17 0 -10 7 -48 16 -84 18 -74 9 -111 -31 -133 -11 -6 -23 -15 -26 -19
-9 -12 -167 -2 -214 13 -22 7 -80 16 -130 19 l-89 6 -9 32 c-7 23 -5 40 7 64
20 41 21 39 -8 39 -50 0 -84 -89 -53 -143 21 -37 61 -67 90 -67 15 0 44 -7 64
-15 19 -8 45 -15 56 -15 22 0 81 -17 109 -31 25 -12 168 -11 168 1 0 6 9 10
19 10 11 0 40 16 66 35 25 20 50 33 55 30 19 -12 40 9 55 55 13 39 14 57 5 89
-6 22 -15 43 -21 47 -6 3 -8 13 -5 21 4 10 2 13 -8 10 -10 -4 -25 16 -49 66
-45 93 -56 142 -73 341 l-6 70 33 -23 c19 -12 42 -25 52 -28 9 -3 17 -9 17
-14 0 -5 9 -9 19 -9 11 0 22 -4 25 -9 3 -5 18 -12 33 -15 34 -9 103 -24 123
-27 26 -5 170 13 170 21 0 4 16 11 36 14 19 4 38 14 41 22 3 7 11 14 19 14 16
0 92 72 117 111 14 21 15 30 5 57 -7 18 -16 32 -20 32 -4 0 -8 5 -8 11 0 15
-68 76 -104 95 -43 21 -502 20 -531 -2 -18 -14 -20 -13 -25 7 -7 27 -23 34
-37 17z m60 -100 c-6 -7 -13 -20 -16 -28 -3 -9 -6 -3 -6 13 -1 19 4 27 15 27
12 0 14 -4 7 -12z m157 8 c0 -1 -5 -17 -11 -35 -9 -26 -8 -41 5 -75 20 -52 37
-69 94 -92 38 -14 49 -15 83 -4 74 25 121 105 105 180 -6 34 -3 35 57 19 43
-11 97 -65 97 -98 0 -26 -102 -115 -147 -128 -74 -22 -208 -17 -287 12 -69 25
-82 32 -123 68 l-22 20 21 41 c30 61 67 96 100 96 15 0 28 -2 28 -4z m140 -11
c0 -16 -43 -31 -59 -20 -25 15 -11 35 24 35 24 0 35 -5 35 -15z"/>
<path d="M1728 2313 c-21 -9 -38 -20 -38 -24 0 -5 -6 -9 -14 -9 -28 0 -104
-126 -93 -154 3 -8 30 -33 59 -55 29 -23 58 -46 65 -51 25 -21 80 -47 108 -53
17 -3 53 -11 80 -17 71 -16 226 -5 278 20 22 11 47 20 54 20 7 0 32 12 56 27
23 15 48 26 56 24 7 -1 10 2 7 8 -4 6 5 18 19 27 14 9 25 25 25 36 0 18 -27
76 -41 88 -3 3 -11 15 -18 28 -11 20 -10 22 19 22 16 0 30 2 30 5 0 14 -46 55
-62 55 -10 0 -18 5 -18 10 0 6 -95 10 -267 9 -217 -1 -275 -4 -305 -16z m114
-120 c-3 -48 0 -64 20 -92 40 -59 72 -76 142 -76 53 0 69 5 99 27 44 34 72
102 64 158 -5 38 -4 40 22 40 37 0 121 -92 121 -134 0 -17 -81 -70 -135 -86
-22 -7 -50 -16 -63 -21 -34 -13 -232 -10 -272 4 -48 17 -121 61 -142 86 -10
12 -18 32 -18 45 0 31 49 78 97 93 68 21 70 20 65 -44z m161 36 c-24 -24 -73
-20 -73 6 0 11 12 15 47 15 l47 0 -21 -21z"/>
<path d="M587 2289 c-25 -14 -21 -34 10 -48 24 -11 26 -14 10 -22 -33 -19 -47
-64 -47 -151 0 -131 46 -240 148 -353 78 -86 137 -124 190 -125 44 0 57 8 79
47 9 15 9 32 1 64 -6 24 -14 46 -18 49 -16 12 -24 52 -25 140 -2 83 -6 102
-31 148 -15 28 -32 52 -36 52 -4 0 -8 6 -8 13 0 11 -36 55 -101 124 -48 50
-136 82 -172 62z"/>
</g>
</svg>
